<svg width="56" height="37" viewBox="0 0 56 37" fill="none" xmlns="http://www.w3.org/2000/svg">
<rect y="0.500122" width="55.4348" height="36.1219" rx="3" fill="#E6E6E6"/>
<path d="M20.4278 14.7274V22.0001H18.8902V16.1869H18.8476L17.1821 17.2309V15.8673L18.9825 14.7274H20.4278ZM24.105 24.0456V16.5456H25.5965V17.4618H25.6639C25.7302 17.315 25.8261 17.1658 25.9516 17.0143C26.0794 16.8604 26.2451 16.7326 26.4487 16.6308C26.6547 16.5266 26.9104 16.4746 27.2158 16.4746C27.6135 16.4746 27.9805 16.5787 28.3166 16.7871C28.6528 16.993 28.9215 17.3043 29.1227 17.721C29.324 18.1353 29.4246 18.655 29.4246 19.28C29.4246 19.8884 29.3263 20.4021 29.1298 20.8211C28.9357 21.2378 28.6706 21.5539 28.3344 21.7693C28.0006 21.9824 27.6265 22.0889 27.2122 22.0889C26.9187 22.0889 26.6689 22.0404 26.4629 21.9433C26.2593 21.8462 26.0924 21.7243 25.9622 21.5775C25.832 21.4284 25.7326 21.2781 25.6639 21.1265H25.6178V24.0456H24.105ZM25.5858 19.2728C25.5858 19.5972 25.6308 19.8801 25.7208 20.1216C25.8107 20.363 25.9409 20.5513 26.1114 20.6862C26.2818 20.8188 26.489 20.8851 26.7328 20.8851C26.979 20.8851 27.1874 20.8176 27.3578 20.6827C27.5283 20.5453 27.6573 20.3559 27.7449 20.1145C27.8349 19.8706 27.8798 19.5901 27.8798 19.2728C27.8798 18.958 27.8361 18.681 27.7485 18.4419C27.6609 18.2028 27.5318 18.0157 27.3614 17.8808C27.1909 17.7459 26.9814 17.6784 26.7328 17.6784C26.4866 17.6784 26.2783 17.7435 26.1078 17.8737C25.9397 18.0039 25.8107 18.1886 25.7208 18.4277C25.6308 18.6668 25.5858 18.9485 25.5858 19.2728ZM30.2431 22.0001V16.5456H31.6849V17.5079H31.7488C31.8624 17.1883 32.0518 16.9362 32.317 16.7515C32.5821 16.5669 32.8994 16.4746 33.2687 16.4746C33.6427 16.4746 33.9612 16.5681 34.2239 16.7551C34.4867 16.9398 34.6619 17.1907 34.7495 17.5079H34.8063C34.9176 17.1954 35.1188 16.9457 35.41 16.7586C35.7036 16.5693 36.0504 16.4746 36.4505 16.4746C36.9595 16.4746 37.3726 16.6367 37.6898 16.9611C38.0095 17.283 38.1693 17.7399 38.1693 18.3318V22.0001H36.66V18.6301C36.66 18.3271 36.5795 18.0998 36.4185 17.9483C36.2576 17.7968 36.0563 17.721 35.8148 17.721C35.5402 17.721 35.326 17.8086 35.1721 17.9838C35.0182 18.1566 34.9413 18.3851 34.9413 18.6692V22.0001H33.4747V18.5981C33.4747 18.3306 33.3977 18.1175 33.2438 17.9589C33.0923 17.8003 32.8923 17.721 32.6437 17.721C32.4756 17.721 32.3241 17.7636 32.1891 17.8488C32.0566 17.9317 31.9512 18.0489 31.8731 18.2004C31.795 18.3496 31.7559 18.5247 31.7559 18.726V22.0001H30.2431Z" fill="black" fill-opacity="0.8"/>
</svg>
