<svg width="56" height="37" viewBox="0 0 56 37" fill="none" xmlns="http://www.w3.org/2000/svg">
<rect y="0.134521" width="55.4348" height="36.1219" rx="3" fill="#C9C9C9"/>
<path d="M17.3441 14.3618V21.6345H15.8065V15.8213H15.7639L14.0984 16.8653V15.5017L15.8988 14.3618H17.3441ZM21.7342 21.7943C21.1234 21.792 20.5978 21.6416 20.1575 21.3433C19.7195 21.045 19.3821 20.613 19.1454 20.0472C18.911 19.4813 18.795 18.8007 18.7974 18.0053C18.7974 17.2122 18.9146 16.5363 19.149 15.9776C19.3857 15.4188 19.7231 14.9939 20.161 14.7027C20.6014 14.4091 21.1258 14.2624 21.7342 14.2624C22.3426 14.2624 22.8658 14.4091 23.3038 14.7027C23.7441 14.9963 24.0827 15.4224 24.3194 15.9811C24.5562 16.5375 24.6733 17.2122 24.671 18.0053C24.671 18.8031 24.5526 19.4849 24.3159 20.0507C24.0815 20.6165 23.7453 21.0486 23.3073 21.3469C22.8694 21.6452 22.345 21.7943 21.7342 21.7943ZM21.7342 20.5195C22.1509 20.5195 22.4835 20.3099 22.7321 19.8909C22.9806 19.4719 23.1037 18.8433 23.1014 18.0053C23.1014 17.4537 23.0446 16.9944 22.9309 16.6274C22.8197 16.2605 22.661 15.9847 22.4551 15.8C22.2515 15.6153 22.0112 15.523 21.7342 15.523C21.3199 15.523 20.9884 15.7302 20.7399 16.1445C20.4913 16.5588 20.3658 17.179 20.3634 18.0053C20.3634 18.564 20.4191 19.0304 20.5304 19.4044C20.644 19.7761 20.8038 20.0554 21.0098 20.2425C21.2157 20.4271 21.4572 20.5195 21.7342 20.5195ZM29.2714 21.7375C28.9234 21.7375 28.6133 21.6771 28.341 21.5564C28.0688 21.4333 27.8534 21.2522 27.6947 21.0131C27.5385 20.7716 27.4604 20.4709 27.4604 20.1111C27.4604 19.8081 27.516 19.5536 27.6273 19.3476C27.7385 19.1416 27.8901 18.9759 28.0818 18.8504C28.2736 18.725 28.4914 18.6303 28.7352 18.5663C28.9814 18.5024 29.2395 18.4574 29.5094 18.4314C29.8266 18.3983 30.0823 18.3675 30.2764 18.3391C30.4705 18.3083 30.6114 18.2633 30.699 18.2041C30.7866 18.1449 30.8304 18.0573 30.8304 17.9413V17.92C30.8304 17.6951 30.7594 17.5211 30.6173 17.398C30.4776 17.2749 30.2788 17.2134 30.0207 17.2134C29.7485 17.2134 29.5319 17.2737 29.3709 17.3945C29.2099 17.5128 29.1034 17.662 29.0513 17.8419L27.6521 17.7283C27.7231 17.3968 27.8628 17.1104 28.0712 16.8689C28.2795 16.6251 28.5482 16.438 28.8773 16.3078C29.2087 16.1752 29.5922 16.109 30.0278 16.109C30.3309 16.109 30.6209 16.1445 30.8979 16.2155C31.1772 16.2865 31.4246 16.3966 31.6401 16.5457C31.8579 16.6949 32.0295 16.8867 32.155 17.121C32.2804 17.353 32.3432 17.6312 32.3432 17.9555V21.6345H30.9085V20.8781H30.8659C30.7783 21.0486 30.6611 21.1989 30.5143 21.3291C30.3676 21.457 30.1912 21.5576 29.9852 21.631C29.7793 21.702 29.5413 21.7375 29.2714 21.7375ZM29.7047 20.6935C29.9272 20.6935 30.1237 20.6497 30.2942 20.5621C30.4646 20.4721 30.5984 20.3514 30.6955 20.1999C30.7925 20.0483 30.841 19.8767 30.841 19.6849V19.1061C30.7937 19.1369 30.7286 19.1653 30.6457 19.1913C30.5652 19.215 30.4741 19.2375 30.3723 19.2588C30.2705 19.2778 30.1687 19.2955 30.0669 19.3121C29.9651 19.3263 29.8728 19.3393 29.7899 19.3511C29.6124 19.3772 29.4573 19.4186 29.3247 19.4754C29.1921 19.5322 29.0892 19.6092 29.0158 19.7063C28.9424 19.801 28.9057 19.9193 28.9057 20.0614C28.9057 20.2673 28.9803 20.4248 29.1294 20.5337C29.2809 20.6402 29.4727 20.6935 29.7047 20.6935ZM33.3268 21.6345V16.18H34.7686V17.1423H34.8325C34.9461 16.8227 35.1355 16.5706 35.4007 16.3859C35.6658 16.2013 35.9831 16.109 36.3524 16.109C36.7264 16.109 37.0449 16.2025 37.3077 16.3895C37.5704 16.5742 37.7456 16.8251 37.8332 17.1423H37.89C38.0013 16.8298 38.2025 16.5801 38.4937 16.393C38.7873 16.2037 39.1341 16.109 39.5342 16.109C40.0432 16.109 40.4563 16.2711 40.7736 16.5955C41.0932 16.9174 41.253 17.3743 41.253 17.9662V21.6345H39.7437V18.2645C39.7437 17.9615 39.6632 17.7342 39.5023 17.5827C39.3413 17.4312 39.14 17.3554 38.8986 17.3554C38.6239 17.3554 38.4097 17.443 38.2558 17.6182C38.1019 17.791 38.025 18.0195 38.025 18.3036V21.6345H36.5584V18.2325C36.5584 17.965 36.4814 17.7519 36.3275 17.5933C36.176 17.4347 35.976 17.3554 35.7274 17.3554C35.5593 17.3554 35.4078 17.398 35.2728 17.4832C35.1403 17.5661 35.0349 17.6833 34.9568 17.8348C34.8787 17.984 34.8396 18.1591 34.8396 18.3604V21.6345H33.3268Z" fill="black" fill-opacity="0.8"/>
</svg>
