<svg width="56" height="37" viewBox="0 0 56 37" fill="none" xmlns="http://www.w3.org/2000/svg">
<rect y="0.256592" width="55.4348" height="36.1219" rx="3" fill="#E6E6E6"/>
<path d="M18.3402 14.4839V21.7566H16.8026V15.9434H16.7599L15.0945 16.9874V15.6238L16.8949 14.4839H18.3402ZM23.0428 14.4839V21.7566H21.5051V15.9434H21.4625L19.797 16.9874V15.6238L21.5975 14.4839H23.0428ZM28.2754 21.8596C27.9273 21.8596 27.6172 21.7992 27.345 21.6785C27.0727 21.5554 26.8573 21.3743 26.6986 21.1351C26.5424 20.8937 26.4643 20.593 26.4643 20.2332C26.4643 19.9301 26.5199 19.6756 26.6312 19.4697C26.7424 19.2637 26.894 19.098 27.0857 18.9725C27.2775 18.847 27.4953 18.7523 27.7391 18.6884C27.9853 18.6245 28.2434 18.5795 28.5133 18.5535C28.8305 18.5203 29.0862 18.4895 29.2803 18.4611C29.4745 18.4304 29.6153 18.3854 29.7029 18.3262C29.7905 18.267 29.8343 18.1794 29.8343 18.0634V18.0421C29.8343 17.8172 29.7633 17.6432 29.6212 17.5201C29.4816 17.397 29.2827 17.3354 29.0246 17.3354C28.7524 17.3354 28.5358 17.3958 28.3748 17.5165C28.2138 17.6349 28.1073 17.7841 28.0552 17.964L26.656 17.8503C26.7271 17.5189 26.8667 17.2324 27.0751 16.991C27.2834 16.7471 27.5521 16.5601 27.8812 16.4299C28.2126 16.2973 28.5961 16.231 29.0317 16.231C29.3348 16.231 29.6248 16.2665 29.9018 16.3376C30.1811 16.4086 30.4285 16.5187 30.644 16.6678C30.8618 16.817 31.0334 17.0087 31.1589 17.2431C31.2843 17.4751 31.3471 17.7533 31.3471 18.0776V21.7566H29.9124V21.0002H29.8698C29.7822 21.1707 29.665 21.321 29.5182 21.4512C29.3715 21.579 29.1951 21.6797 28.9891 21.753C28.7832 21.8241 28.5452 21.8596 28.2754 21.8596ZM28.7086 20.8155C28.9311 20.8155 29.1276 20.7717 29.2981 20.6841C29.4685 20.5942 29.6023 20.4734 29.6994 20.3219C29.7964 20.1704 29.845 19.9988 29.845 19.807V19.2282C29.7976 19.259 29.7325 19.2874 29.6496 19.3134C29.5691 19.3371 29.478 19.3596 29.3762 19.3809C29.2744 19.3998 29.1726 19.4176 29.0708 19.4341C28.969 19.4484 28.8767 19.4614 28.7938 19.4732C28.6163 19.4993 28.4612 19.5407 28.3286 19.5975C28.196 19.6543 28.0931 19.7313 28.0197 19.8283C27.9463 19.923 27.9096 20.0414 27.9096 20.1834C27.9096 20.3894 27.9842 20.5468 28.1333 20.6557C28.2848 20.7623 28.4766 20.8155 28.7086 20.8155ZM32.3307 21.7566V16.302H33.7725V17.2644H33.8364C33.9501 16.9448 34.1394 16.6927 34.4046 16.508C34.6697 16.3234 34.987 16.231 35.3563 16.231C35.7304 16.231 36.0488 16.3245 36.3116 16.5116C36.5743 16.6962 36.7495 16.9472 36.8371 17.2644H36.8939C37.0052 16.9519 37.2064 16.7021 37.4976 16.5151C37.7912 16.3257 38.138 16.231 38.5381 16.231C39.0471 16.231 39.4602 16.3932 39.7775 16.7175C40.0971 17.0395 40.2569 17.4964 40.2569 18.0883V21.7566H38.7476V18.3866C38.7476 18.0835 38.6671 17.8563 38.5062 17.7047C38.3452 17.5532 38.1439 17.4775 37.9025 17.4775C37.6278 17.4775 37.4136 17.5651 37.2597 17.7403C37.1058 17.9131 37.0289 18.1415 37.0289 18.4256V21.7566H35.5623V18.3546C35.5623 18.0871 35.4853 17.874 35.3314 17.7154C35.1799 17.5568 34.9799 17.4775 34.7313 17.4775C34.5632 17.4775 34.4117 17.5201 34.2768 17.6053C34.1442 17.6882 34.0388 17.8054 33.9607 17.9569C33.8826 18.106 33.8435 18.2812 33.8435 18.4824V21.7566H32.3307Z" fill="black" fill-opacity="0.8"/>
</svg>
