<svg width="56" height="37" viewBox="0 0 56 37" fill="none" xmlns="http://www.w3.org/2000/svg">
<rect y="0.378418" width="55.4348" height="36.1219" rx="3" fill="#C9C9C9"/>
<path d="M17.3734 14.6057V21.8784H15.8358V16.0652H15.7931L14.1277 17.1092V15.7456L15.9281 14.6057H17.3734ZM18.9119 21.8784V20.7705L21.5007 18.3734C21.7209 18.1604 21.9055 17.9686 22.0547 17.7982C22.2062 17.6277 22.321 17.4608 22.3991 17.2975C22.4773 17.1317 22.5163 16.953 22.5163 16.7612C22.5163 16.5482 22.4678 16.3647 22.3707 16.2108C22.2737 16.0546 22.1411 15.935 21.973 15.8521C21.8049 15.7669 21.6143 15.7243 21.4013 15.7243C21.1787 15.7243 20.9846 15.7693 20.8189 15.8592C20.6532 15.9492 20.5253 16.0782 20.4354 16.2463C20.3454 16.4144 20.3004 16.6144 20.3004 16.8465H18.8409C18.8409 16.3706 18.9486 15.9575 19.1641 15.6071C19.3795 15.2567 19.6813 14.9857 20.0696 14.7939C20.4578 14.6021 20.9053 14.5063 21.4119 14.5063C21.9328 14.5063 22.3861 14.5986 22.772 14.7832C23.1603 14.9655 23.4621 15.2189 23.6775 15.5432C23.893 15.8675 24.0007 16.2392 24.0007 16.6582C24.0007 16.9329 23.9462 17.2039 23.8373 17.4715C23.7308 17.739 23.5402 18.0361 23.2656 18.3628C22.991 18.6871 22.6039 19.0766 22.1044 19.5311L21.0426 20.5716V20.6213H24.0966V21.8784H18.9119ZM27.1594 23.9239V16.4239H28.6509V17.3401H28.7184C28.7846 17.1933 28.8805 17.0441 29.006 16.8926C29.1338 16.7387 29.2996 16.6109 29.5032 16.5091C29.7091 16.4049 29.9648 16.3528 30.2702 16.3528C30.6679 16.3528 31.0349 16.457 31.3711 16.6653C31.7072 16.8713 31.9759 17.1826 32.1772 17.5993C32.3784 18.0136 32.479 18.5332 32.479 19.1582C32.479 19.7667 32.3808 20.2804 32.1843 20.6994C31.9901 21.1161 31.725 21.4322 31.3888 21.6476C31.055 21.8607 30.681 21.9672 30.2667 21.9672C29.9731 21.9672 29.7233 21.9187 29.5174 21.8216C29.3138 21.7245 29.1469 21.6026 29.0167 21.4558C28.8864 21.3067 28.787 21.1564 28.7184 21.0048H28.6722V23.9239H27.1594ZM28.6402 19.1511C28.6402 19.4755 28.6852 19.7584 28.7752 19.9999C28.8651 20.2413 28.9953 20.4296 29.1658 20.5645C29.3363 20.6971 29.5434 20.7634 29.7872 20.7634C30.0335 20.7634 30.2418 20.6959 30.4122 20.5609C30.5827 20.4236 30.7117 20.2342 30.7993 19.9928C30.8893 19.7489 30.9343 19.4684 30.9343 19.1511C30.9343 18.8363 30.8905 18.5593 30.8029 18.3202C30.7153 18.0811 30.5863 17.894 30.4158 17.7591C30.2453 17.6242 30.0358 17.5567 29.7872 17.5567C29.541 17.5567 29.3327 17.6218 29.1622 17.752C28.9942 17.8822 28.8651 18.0669 28.7752 18.306C28.6852 18.5451 28.6402 18.8268 28.6402 19.1511ZM33.2975 21.8784V16.4239H34.7393V17.3862H34.8032C34.9168 17.0666 35.1062 16.8145 35.3714 16.6298C35.6365 16.4452 35.9538 16.3528 36.3231 16.3528C36.6972 16.3528 37.0156 16.4464 37.2784 16.6334C37.5411 16.818 37.7163 17.069 37.8039 17.3862H37.8607C37.972 17.0737 38.1732 16.824 38.4644 16.6369C38.758 16.4475 39.1048 16.3528 39.5049 16.3528C40.0139 16.3528 40.427 16.515 40.7443 16.8394C41.0639 17.1613 41.2237 17.6182 41.2237 18.2101V21.8784H39.7144V18.5084C39.7144 18.2054 39.6339 17.9781 39.473 17.8266C39.312 17.6751 39.1107 17.5993 38.8693 17.5993C38.5946 17.5993 38.3804 17.6869 38.2265 17.8621C38.0726 18.0349 37.9957 18.2634 37.9957 18.5475V21.8784H36.5291V18.4764C36.5291 18.2089 36.4521 17.9958 36.2982 17.8372C36.1467 17.6786 35.9467 17.5993 35.6981 17.5993C35.53 17.5993 35.3785 17.6419 35.2436 17.7271C35.111 17.81 35.0056 17.9272 34.9275 18.0787C34.8494 18.2278 34.8103 18.403 34.8103 18.6043V21.8784H33.2975Z" fill="black" fill-opacity="0.8"/>
</svg>
