<svg width="56" height="37" viewBox="0 0 56 37" fill="none" xmlns="http://www.w3.org/2000/svg">
<rect y="0.622314" width="55.4348" height="36.1219" rx="3" fill="#C9C9C9"/>
<path d="M16.5606 22.1223V21.0144L19.1494 18.6173C19.3696 18.4043 19.5542 18.2125 19.7034 18.0421C19.8549 17.8716 19.9697 17.7047 20.0478 17.5413C20.126 17.3756 20.165 17.1969 20.165 17.0051C20.165 16.7921 20.1165 16.6086 20.0194 16.4547C19.9224 16.2985 19.7898 16.1789 19.6217 16.096C19.4536 16.0108 19.263 15.9682 19.05 15.9682C18.8274 15.9682 18.6333 16.0132 18.4676 16.1031C18.3019 16.1931 18.174 16.3221 18.0841 16.4902C17.9941 16.6583 17.9491 16.8583 17.9491 17.0904H16.4896C16.4896 16.6145 16.5973 16.2014 16.8128 15.851C17.0282 15.5006 17.33 15.2296 17.7183 15.0378C18.1066 14.846 18.554 14.7502 19.0606 14.7502C19.5815 14.7502 20.0348 14.8425 20.4207 15.0271C20.809 15.2094 21.1108 15.4627 21.3263 15.7871C21.5417 16.1114 21.6494 16.4831 21.6494 16.9021C21.6494 17.1768 21.595 17.4478 21.4861 17.7154C21.3795 17.9829 21.1889 18.28 20.9143 18.6067C20.6397 18.931 20.2526 19.3205 19.7531 19.775L18.6913 20.8155V20.8652H21.7453V22.1223H16.5606ZM24.8081 24.1678V16.6678H26.2996V17.584H26.3671C26.4334 17.4372 26.5292 17.288 26.6547 17.1365C26.7825 16.9826 26.9483 16.8548 27.1519 16.753C27.3578 16.6488 27.6135 16.5967 27.9189 16.5967C28.3166 16.5967 28.6836 16.7009 29.0198 16.9092C29.3559 17.1152 29.6246 17.4265 29.8259 17.8432C30.0271 18.2575 30.1277 18.7771 30.1277 19.4021C30.1277 20.0106 30.0295 20.5243 29.833 20.9433C29.6388 21.36 29.3737 21.6761 29.0375 21.8915C28.7037 22.1046 28.3297 22.2111 27.9154 22.2111C27.6218 22.2111 27.372 22.1626 27.1661 22.0655C26.9625 21.9684 26.7956 21.8465 26.6654 21.6997C26.5352 21.5506 26.4357 21.4003 26.3671 21.2487H26.3209V24.1678H24.8081ZM26.2889 19.395C26.2889 19.7194 26.3339 20.0023 26.4239 20.2438C26.5138 20.4852 26.6441 20.6735 26.8145 20.8084C26.985 20.941 27.1921 21.0073 27.436 21.0073C27.6822 21.0073 27.8905 20.9398 28.061 20.8048C28.2314 20.6675 28.3604 20.4781 28.448 20.2367C28.538 19.9928 28.583 19.7123 28.583 19.395C28.583 19.0802 28.5392 18.8032 28.4516 18.5641C28.364 18.325 28.235 18.1379 28.0645 18.003C27.8941 17.8681 27.6845 17.8006 27.436 17.8006C27.1897 17.8006 26.9814 17.8657 26.811 17.9959C26.6429 18.1261 26.5138 18.3108 26.4239 18.5499C26.3339 18.789 26.2889 19.0707 26.2889 19.395ZM30.9462 22.1223V16.6678H32.388V17.6301H32.4519C32.5656 17.3105 32.755 17.0584 33.0201 16.8737C33.2853 16.6891 33.6025 16.5967 33.9718 16.5967C34.3459 16.5967 34.6643 16.6903 34.9271 16.8773C35.1898 17.0619 35.365 17.3129 35.4526 17.6301H35.5095C35.6207 17.3176 35.822 17.0679 36.1131 16.8808C36.4067 16.6914 36.7535 16.5967 37.1536 16.5967C37.6626 16.5967 38.0757 16.7589 38.393 17.0833C38.7126 17.4052 38.8724 17.8621 38.8724 18.454V22.1223H37.3631V18.7523C37.3631 18.4493 37.2827 18.222 37.1217 18.0705C36.9607 17.919 36.7595 17.8432 36.518 17.8432C36.2434 17.8432 36.0291 17.9308 35.8752 18.106C35.7213 18.2788 35.6444 18.5073 35.6444 18.7913V22.1223H34.1778V18.7203C34.1778 18.4528 34.1008 18.2397 33.947 18.0811C33.7954 17.9225 33.5954 17.8432 33.3468 17.8432C33.1787 17.8432 33.0272 17.8858 32.8923 17.971C32.7597 18.0539 32.6543 18.1711 32.5762 18.3226C32.4981 18.4717 32.459 18.6469 32.459 18.8482V22.1223H30.9462Z" fill="black" fill-opacity="0.8"/>
</svg>
