<svg width="56" height="37" viewBox="0 0 56 37" fill="none" xmlns="http://www.w3.org/2000/svg">
<rect y="0.744019" width="55.4348" height="36.1219" rx="3" fill="#E6E6E6"/>
<path d="M19.1024 22.3435C18.5721 22.3435 18.0998 22.2523 17.6855 22.07C17.2735 21.8854 16.948 21.632 16.7089 21.3101C16.4721 20.9857 16.3502 20.6117 16.3431 20.1879H17.8914C17.9009 20.3655 17.9589 20.5217 18.0654 20.6567C18.1743 20.7892 18.3187 20.8922 18.4987 20.9656C18.6786 21.039 18.881 21.0757 19.1059 21.0757C19.3403 21.0757 19.5474 21.0343 19.7274 20.9514C19.9073 20.8685 20.0481 20.7537 20.1499 20.6069C20.2517 20.4602 20.3026 20.2909 20.3026 20.0991C20.3026 19.905 20.2482 19.7334 20.1393 19.5842C20.0328 19.4327 19.8789 19.3143 19.6776 19.2291C19.4788 19.1439 19.242 19.1013 18.9674 19.1013H18.2891V17.972H18.9674C19.1994 17.972 19.4042 17.9318 19.5818 17.8513C19.7617 17.7708 19.9014 17.6595 20.0008 17.5175C20.1002 17.373 20.1499 17.205 20.1499 17.0132C20.1499 16.8309 20.1061 16.6711 20.0185 16.5338C19.9333 16.3941 19.8126 16.2852 19.6563 16.2071C19.5025 16.129 19.3225 16.0899 19.1166 16.0899C18.9082 16.0899 18.7176 16.1278 18.5448 16.2035C18.372 16.2769 18.2335 16.3823 18.1293 16.5196C18.0252 16.6569 17.9695 16.8179 17.9624 17.0025H16.4887C16.4958 16.5835 16.6154 16.2142 16.8474 15.8946C17.0794 15.575 17.3919 15.3252 17.7849 15.1453C18.1802 14.963 18.6265 14.8719 19.1237 14.8719C19.6256 14.8719 20.0647 14.963 20.4411 15.1453C20.8176 15.3276 21.1099 15.5738 21.3183 15.8839C21.529 16.1917 21.6331 16.5373 21.6308 16.9209C21.6331 17.3281 21.5065 17.6678 21.2508 17.94C20.9975 18.2123 20.6672 18.3851 20.26 18.4585V18.5153C20.7951 18.584 21.2023 18.7698 21.4816 19.0729C21.7633 19.3735 21.903 19.7499 21.9007 20.2021C21.903 20.6164 21.7835 20.9845 21.542 21.3065C21.3029 21.6285 20.9726 21.8818 20.5512 22.0665C20.1298 22.2511 19.6469 22.3435 19.1024 22.3435ZM24.9546 24.2895V16.7895H26.4461V17.7057H26.5135C26.5798 17.5589 26.6757 17.4097 26.8012 17.2582C26.929 17.1043 27.0948 16.9765 27.2983 16.8747C27.5043 16.7705 27.76 16.7185 28.0654 16.7185C28.4631 16.7185 28.8301 16.8226 29.1662 17.031C29.5024 17.2369 29.7711 17.5482 29.9724 17.9649C30.1736 18.3792 30.2742 18.8988 30.2742 19.5238C30.2742 20.1323 30.176 20.646 29.9795 21.065C29.7853 21.4817 29.5202 21.7978 29.184 22.0132C28.8502 22.2263 28.4761 22.3328 28.0618 22.3328C27.7683 22.3328 27.5185 22.2843 27.3126 22.1872C27.109 22.0901 26.9421 21.9682 26.8118 21.8214C26.6816 21.6723 26.5822 21.522 26.5135 21.3704H26.4674V24.2895H24.9546ZM26.4354 19.5167C26.4354 19.8411 26.4804 20.124 26.5704 20.3655C26.6603 20.6069 26.7905 20.7952 26.961 20.9301C27.1314 21.0627 27.3386 21.129 27.5824 21.129C27.8287 21.129 28.037 21.0615 28.2074 20.9265C28.3779 20.7892 28.5069 20.5998 28.5945 20.3584C28.6845 20.1145 28.7295 19.834 28.7295 19.5167C28.7295 19.2019 28.6857 18.9249 28.5981 18.6858C28.5105 18.4467 28.3814 18.2596 28.211 18.1247C28.0405 17.9898 27.831 17.9223 27.5824 17.9223C27.3362 17.9223 27.1279 17.9874 26.9574 18.1176C26.7894 18.2478 26.6603 18.4325 26.5704 18.6716C26.4804 18.9107 26.4354 19.1924 26.4354 19.5167ZM31.0927 22.244V16.7895H32.5345V17.7518H32.5984C32.712 17.4322 32.9014 17.1801 33.1666 16.9954C33.4317 16.8108 33.749 16.7185 34.1183 16.7185C34.4923 16.7185 34.8108 16.812 35.0735 16.999C35.3363 17.1836 35.5115 17.4346 35.5991 17.7518H35.6559C35.7672 17.4393 35.9684 17.1896 36.2596 17.0025C36.5532 16.8131 36.9 16.7185 37.3001 16.7185C37.8091 16.7185 38.2222 16.8806 38.5395 17.205C38.8591 17.5269 39.0189 17.9838 39.0189 18.5757V22.244H37.5096V18.874C37.5096 18.571 37.4291 18.3437 37.2682 18.1922C37.1072 18.0407 36.9059 17.9649 36.6645 17.9649C36.3898 17.9649 36.1756 18.0525 36.0217 18.2277C35.8678 18.4005 35.7909 18.629 35.7909 18.9131V22.244H34.3243V18.842C34.3243 18.5745 34.2473 18.3614 34.0934 18.2028C33.9419 18.0442 33.7419 17.9649 33.4933 17.9649C33.3252 17.9649 33.1737 18.0075 33.0387 18.0927C32.9062 18.1756 32.8008 18.2928 32.7227 18.4443C32.6446 18.5935 32.6055 18.7686 32.6055 18.9699V22.244H31.0927Z" fill="black" fill-opacity="0.8"/>
</svg>
