<svg width="56" height="37" viewBox="0 0 56 37" fill="none" xmlns="http://www.w3.org/2000/svg">
<rect y="0.865967" width="55.4348" height="36.1219" rx="3" fill="#C9C9C9"/>
<path d="M16.2113 21.0876V19.8766L19.2475 15.0932H20.2915V16.7694H19.6736L17.7596 19.7985V19.8553H22.0742V21.0876H16.2113ZM19.7021 22.366V20.7182L19.7305 20.182V15.0932H21.1722V22.366H19.7021ZM25.0474 24.4114V16.9114H26.5389V17.8276H26.6063C26.6726 17.6808 26.7685 17.5317 26.894 17.3802C27.0218 17.2263 27.1875 17.0984 27.3911 16.9966C27.5971 16.8925 27.8528 16.8404 28.1582 16.8404C28.5559 16.8404 28.9228 16.9446 29.259 17.1529C29.5952 17.3589 29.8639 17.6702 30.0651 18.0868C30.2664 18.5011 30.367 19.0208 30.367 19.6458C30.367 20.2542 30.2687 20.768 30.0722 21.187C29.8781 21.6037 29.613 21.9197 29.2768 22.1351C28.943 22.3482 28.5689 22.4547 28.1546 22.4547C27.8611 22.4547 27.6113 22.4062 27.4053 22.3091C27.2017 22.2121 27.0348 22.0902 26.9046 21.9434C26.7744 21.7942 26.675 21.6439 26.6063 21.4924H26.5602V24.4114H25.0474ZM26.5282 19.6387C26.5282 19.963 26.5732 20.2459 26.6631 20.4874C26.7531 20.7289 26.8833 20.9171 27.0538 21.052C27.2242 21.1846 27.4314 21.2509 27.6752 21.2509C27.9214 21.2509 28.1298 21.1834 28.3002 21.0485C28.4707 20.9112 28.5997 20.7218 28.6873 20.4803C28.7773 20.2365 28.8222 19.9559 28.8222 19.6387C28.8222 19.3238 28.7784 19.0468 28.6908 18.8077C28.6032 18.5686 28.4742 18.3816 28.3038 18.2466C28.1333 18.1117 27.9238 18.0442 27.6752 18.0442C27.429 18.0442 27.2207 18.1093 27.0502 18.2395C26.8821 18.3698 26.7531 18.5544 26.6631 18.7935C26.5732 19.0326 26.5282 19.3144 26.5282 19.6387ZM31.1855 22.366V16.9114H32.6273V17.8738H32.6912C32.8048 17.5542 32.9942 17.302 33.2594 17.1174C33.5245 16.9327 33.8417 16.8404 34.2111 16.8404C34.5851 16.8404 34.9035 16.9339 35.1663 17.1209C35.4291 17.3056 35.6043 17.5565 35.6919 17.8738H35.7487C35.86 17.5613 36.0612 17.3115 36.3524 17.1245C36.646 16.9351 36.9928 16.8404 37.3929 16.8404C37.9019 16.8404 38.315 17.0026 38.6322 17.3269C38.9518 17.6489 39.1116 18.1058 39.1116 18.6976V22.366H37.6024V18.9959C37.6024 18.6929 37.5219 18.4656 37.3609 18.3141C37.1999 18.1626 36.9987 18.0868 36.7572 18.0868C36.4826 18.0868 36.2684 18.1744 36.1145 18.3496C35.9606 18.5225 35.8837 18.7509 35.8837 19.035V22.366H34.417V18.964C34.417 18.6965 34.3401 18.4834 34.1862 18.3248C34.0347 18.1662 33.8346 18.0868 33.5861 18.0868C33.418 18.0868 33.2665 18.1295 33.1315 18.2147C32.9989 18.2975 32.8936 18.4147 32.8155 18.5663C32.7373 18.7154 32.6983 18.8906 32.6983 19.0918V22.366H31.1855Z" fill="black" fill-opacity="0.8"/>
</svg>
