<svg width="56" height="38" viewBox="0 0 56 38" fill="none" xmlns="http://www.w3.org/2000/svg">
<rect y="0.987915" width="55.4348" height="36.1219" rx="3" fill="#E6E6E6"/>
<path d="M19.1436 22.5873C18.6417 22.5873 18.1943 22.495 17.8013 22.3104C17.4107 22.1257 17.1006 21.8712 16.8709 21.5469C16.6413 21.2225 16.5217 20.8508 16.5122 20.4318H18.0037C18.0203 20.7135 18.1387 20.942 18.3588 21.1172C18.579 21.2924 18.8406 21.38 19.1436 21.38C19.3851 21.38 19.5982 21.3267 19.7828 21.2202C19.9699 21.1113 20.1155 20.9609 20.2196 20.7692C20.3262 20.575 20.3794 20.3525 20.3794 20.1016C20.3794 19.8459 20.325 19.621 20.2161 19.4268C20.1095 19.2327 19.9616 19.0812 19.7722 18.9723C19.5828 18.8634 19.3662 18.8078 19.1223 18.8054C18.9093 18.8054 18.7021 18.8492 18.5009 18.9368C18.302 19.0244 18.147 19.1439 18.0357 19.2954L16.6685 19.0504L17.013 15.2152H21.459V16.4723H18.2807L18.0925 18.294H18.1351C18.263 18.1141 18.4559 17.965 18.714 17.8466C18.972 17.7282 19.2608 17.669 19.5804 17.669C20.0184 17.669 20.409 17.772 20.7523 17.978C21.0956 18.1839 21.3666 18.4668 21.5655 18.8267C21.7644 19.1842 21.8626 19.5961 21.8603 20.0625C21.8626 20.5525 21.749 20.9882 21.5193 21.3693C21.2921 21.7481 20.9737 22.0464 20.5641 22.2642C20.1569 22.4796 19.6834 22.5873 19.1436 22.5873ZM24.8814 24.5334V17.0334H26.3728V17.9496H26.4403C26.5066 17.8028 26.6025 17.6536 26.7279 17.5021C26.8558 17.3482 27.0215 17.2204 27.2251 17.1186C27.4311 17.0144 27.6868 16.9623 27.9922 16.9623C28.3899 16.9623 28.7568 17.0665 29.093 17.2748C29.4292 17.4808 29.6979 17.7921 29.8991 18.2088C30.1003 18.6231 30.201 19.1427 30.201 19.7677C30.201 20.3762 30.1027 20.8899 29.9062 21.3089C29.7121 21.7256 29.4469 22.0417 29.1108 22.2571C28.777 22.4702 28.4029 22.5767 27.9886 22.5767C27.695 22.5767 27.4453 22.5282 27.2393 22.4311C27.0357 22.334 26.8688 22.2121 26.7386 22.0653C26.6084 21.9162 26.509 21.7659 26.4403 21.6143H26.3941V24.5334H24.8814ZM26.3622 19.7606C26.3622 20.085 26.4072 20.3679 26.4971 20.6094C26.5871 20.8508 26.7173 21.0391 26.8877 21.174C27.0582 21.3066 27.2654 21.3729 27.5092 21.3729C27.7554 21.3729 27.9637 21.3054 28.1342 21.1704C28.3047 21.0331 28.4337 20.8437 28.5213 20.6023C28.6112 20.3584 28.6562 20.0779 28.6562 19.7606C28.6562 19.4458 28.6124 19.1688 28.5248 18.9297C28.4372 18.6906 28.3082 18.5035 28.1377 18.3686C27.9673 18.2337 27.7578 18.1662 27.5092 18.1662C27.263 18.1662 27.0547 18.2313 26.8842 18.3615C26.7161 18.4917 26.5871 18.6764 26.4971 18.9155C26.4072 19.1546 26.3622 19.4363 26.3622 19.7606ZM31.0195 22.4879V17.0334H32.4612V17.9957H32.5252C32.6388 17.6761 32.8282 17.424 33.0933 17.2393C33.3585 17.0547 33.6757 16.9623 34.0451 16.9623C34.4191 16.9623 34.7375 17.0559 35.0003 17.2429C35.2631 17.4275 35.4383 17.6785 35.5259 17.9957H35.5827C35.694 17.6832 35.8952 17.4335 36.1864 17.2464C36.4799 17.057 36.8268 16.9623 37.2269 16.9623C37.7359 16.9623 38.149 17.1245 38.4662 17.4489C38.7858 17.7708 38.9456 18.2277 38.9456 18.8196V22.4879H37.4364V19.1179C37.4364 18.8149 37.3559 18.5876 37.1949 18.4361C37.0339 18.2846 36.8327 18.2088 36.5912 18.2088C36.3166 18.2088 36.1023 18.2964 35.9485 18.4716C35.7946 18.6444 35.7176 18.8729 35.7176 19.1569V22.4879H34.251V19.0859C34.251 18.8184 34.1741 18.6053 34.0202 18.4467C33.8687 18.2881 33.6686 18.2088 33.4201 18.2088C33.252 18.2088 33.1004 18.2514 32.9655 18.3366C32.8329 18.4195 32.7276 18.5367 32.6495 18.6882C32.5713 18.8373 32.5323 19.0125 32.5323 19.2138V22.4879H31.0195Z" fill="black" fill-opacity="0.8"/>
</svg>
