<svg width="56" height="37" viewBox="0 0 56 37" fill="none" xmlns="http://www.w3.org/2000/svg">
<rect y="0.109741" width="55.4348" height="36.1219" rx="3" fill="#C9C9C9"/>
<path d="M19.2005 21.7092C18.8264 21.7068 18.4654 21.6441 18.1174 21.521C17.7717 21.3979 17.4616 21.1978 17.187 20.9208C16.9123 20.6438 16.6945 20.2769 16.5336 19.82C16.3749 19.3631 16.2956 18.802 16.2956 18.1367C16.298 17.5259 16.3678 16.9802 16.5051 16.4997C16.6448 16.0167 16.8437 15.6071 17.1017 15.271C17.3622 14.9348 17.6735 14.6791 18.0357 14.5039C18.3979 14.3264 18.8039 14.2376 19.2537 14.2376C19.739 14.2376 20.1675 14.3323 20.5392 14.5217C20.9109 14.7087 21.2092 14.9632 21.4341 15.2852C21.6614 15.6071 21.7987 15.9682 21.8461 16.3683H20.3297C20.2705 16.1149 20.1462 15.9161 19.9568 15.7717C19.7675 15.6273 19.5331 15.5551 19.2537 15.5551C18.7802 15.5551 18.4204 15.761 18.1742 16.173C17.9303 16.5849 17.806 17.1448 17.8013 17.8526H17.851C17.9599 17.6372 18.1067 17.4537 18.2914 17.3022C18.4784 17.1483 18.6903 17.0311 18.927 16.9507C19.1661 16.8678 19.4183 16.8264 19.6834 16.8264C20.1143 16.8264 20.4978 16.9282 20.834 17.1318C21.1702 17.333 21.4353 17.61 21.6294 17.9627C21.8236 18.3155 21.9206 18.7191 21.9206 19.1737C21.9206 19.6661 21.8058 20.1041 21.5762 20.4876C21.3489 20.8711 21.0305 21.1718 20.6209 21.3896C20.2137 21.605 19.7402 21.7115 19.2005 21.7092ZM19.1934 20.5018C19.4301 20.5018 19.642 20.445 19.829 20.3313C20.016 20.2177 20.1628 20.0638 20.2693 19.8697C20.3759 19.6756 20.4291 19.4578 20.4291 19.2163C20.4291 18.9748 20.3759 18.7582 20.2693 18.5664C20.1652 18.3747 20.0208 18.222 19.8361 18.1083C19.6515 17.9947 19.4408 17.9379 19.204 17.9379C19.0265 17.9379 18.8619 17.971 18.7104 18.0373C18.5613 18.1036 18.4299 18.1959 18.3162 18.3143C18.205 18.4327 18.1174 18.57 18.0534 18.7262C17.9895 18.8801 17.9576 19.0446 17.9576 19.2198C17.9576 19.4542 18.0108 19.6685 18.1174 19.8626C18.2263 20.0567 18.373 20.2118 18.5577 20.3278C18.7447 20.4438 18.9566 20.5018 19.1934 20.5018ZM24.9595 23.6552V16.1552H26.451V17.0714H26.5184C26.5847 16.9246 26.6806 16.7755 26.8061 16.6239C26.9339 16.4701 27.0996 16.3422 27.3032 16.2404C27.5092 16.1363 27.7649 16.0842 28.0703 16.0842C28.468 16.0842 28.835 16.1883 29.1711 16.3967C29.5073 16.6026 29.776 16.914 29.9772 17.3306C30.1785 17.7449 30.2791 18.2646 30.2791 18.8896C30.2791 19.498 30.1808 20.0117 29.9843 20.4308C29.7902 20.8474 29.5251 21.1635 29.1889 21.3789C28.8551 21.592 28.481 21.6985 28.0667 21.6985C27.7732 21.6985 27.5234 21.65 27.3174 21.5529C27.1138 21.4559 26.9469 21.3339 26.8167 21.1872C26.6865 21.038 26.5871 20.8877 26.5184 20.7362H26.4723V23.6552H24.9595ZM26.4403 18.8825C26.4403 19.2068 26.4853 19.4897 26.5752 19.7312C26.6652 19.9727 26.7954 20.1609 26.9659 20.2958C27.1363 20.4284 27.3435 20.4947 27.5873 20.4947C27.8335 20.4947 28.0419 20.4272 28.2123 20.2923C28.3828 20.155 28.5118 19.9656 28.5994 19.7241C28.6894 19.4802 28.7343 19.1997 28.7343 18.8825C28.7343 18.5676 28.6905 18.2906 28.6029 18.0515C28.5154 17.8124 28.3863 17.6254 28.2159 17.4904C28.0454 17.3555 27.8359 17.288 27.5873 17.288C27.3411 17.288 27.1328 17.3531 26.9623 17.4833C26.7942 17.6135 26.6652 17.7982 26.5752 18.0373C26.4853 18.2764 26.4403 18.5581 26.4403 18.8825ZM31.0976 21.6097V16.1552H32.5394V17.1176H32.6033C32.7169 16.798 32.9063 16.5458 33.1715 16.3612C33.4366 16.1765 33.7539 16.0842 34.1232 16.0842C34.4972 16.0842 34.8156 16.1777 35.0784 16.3647C35.3412 16.5494 35.5164 16.8003 35.604 17.1176H35.6608C35.7721 16.8051 35.9733 16.5553 36.2645 16.3683C36.5581 16.1789 36.9049 16.0842 37.305 16.0842C37.814 16.0842 38.2271 16.2463 38.5443 16.5707C38.8639 16.8926 39.0237 17.3496 39.0237 17.9414V21.6097H37.5145V18.2397C37.5145 17.9367 37.434 17.7094 37.273 17.5579C37.1121 17.4064 36.9108 17.3306 36.6693 17.3306C36.3947 17.3306 36.1805 17.4182 36.0266 17.5934C35.8727 17.7662 35.7958 17.9947 35.7958 18.2788V21.6097H34.3291V18.2078C34.3291 17.9402 34.2522 17.7272 34.0983 17.5685C33.9468 17.4099 33.7468 17.3306 33.4982 17.3306C33.3301 17.3306 33.1786 17.3732 33.0436 17.4585C32.9111 17.5413 32.8057 17.6585 32.7276 17.81C32.6495 17.9592 32.6104 18.1344 32.6104 18.3356V21.6097H31.0976Z" fill="black" fill-opacity="0.8"/>
</svg>
