<svg width="56" height="37" viewBox="0 0 56 37" fill="none" xmlns="http://www.w3.org/2000/svg">
<rect y="0.231689" width="55.4348" height="36.1219" rx="3" fill="#E6E6E6"/>
<path d="M17.0241 21.7317L20.039 15.7658V15.7161H16.5269V14.459H21.6299V15.7338L18.6114 21.7317H17.0241ZM24.6323 23.7771V16.2771H26.1238V17.1933H26.1913C26.2576 17.0466 26.3535 16.8974 26.4789 16.7459C26.6068 16.592 26.7725 16.4642 26.9761 16.3624C27.182 16.2582 27.4377 16.2061 27.7431 16.2061C28.1409 16.2061 28.5078 16.3103 28.844 16.5186C29.1802 16.7246 29.4489 17.0359 29.6501 17.4526C29.8513 17.8669 29.9519 18.3865 29.9519 19.0115C29.9519 19.6199 29.8537 20.1337 29.6572 20.5527C29.4631 20.9694 29.1979 21.2854 28.8617 21.5009C28.5279 21.7139 28.1539 21.8205 27.7396 21.8205C27.446 21.8205 27.1963 21.7719 26.9903 21.6749C26.7867 21.5778 26.6198 21.4559 26.4896 21.3091C26.3594 21.16 26.2599 21.0096 26.1913 20.8581H26.1451V23.7771H24.6323ZM26.1132 19.0044C26.1132 19.3288 26.1581 19.6117 26.2481 19.8531C26.3381 20.0946 26.4683 20.2828 26.6387 20.4178C26.8092 20.5503 27.0163 20.6166 27.2602 20.6166C27.5064 20.6166 27.7147 20.5492 27.8852 20.4142C28.0556 20.2769 28.1847 20.0875 28.2722 19.846C28.3622 19.6022 28.4072 19.3217 28.4072 19.0044C28.4072 18.6895 28.3634 18.4126 28.2758 18.1735C28.1882 17.9343 28.0592 17.7473 27.8887 17.6124C27.7183 17.4774 27.5088 17.41 27.2602 17.41C27.014 17.41 26.8056 17.4751 26.6352 17.6053C26.4671 17.7355 26.3381 17.9201 26.2481 18.1592C26.1581 18.3984 26.1132 18.6801 26.1132 19.0044ZM30.7705 21.7317V16.2771H32.2122V17.2395H32.2761C32.3898 16.9199 32.5792 16.6678 32.8443 16.4831C33.1095 16.2985 33.4267 16.2061 33.796 16.2061C34.1701 16.2061 34.4885 16.2996 34.7513 16.4867C35.0141 16.6713 35.1893 16.9223 35.2769 17.2395H35.3337C35.4449 16.927 35.6462 16.6772 35.9374 16.4902C36.2309 16.3008 36.5778 16.2061 36.9778 16.2061C37.4868 16.2061 37.9 16.3683 38.2172 16.6926C38.5368 17.0146 38.6966 17.4715 38.6966 18.0634V21.7317H37.1874V18.3617C37.1874 18.0586 37.1069 17.8314 36.9459 17.6798C36.7849 17.5283 36.5837 17.4526 36.3422 17.4526C36.0676 17.4526 35.8533 17.5402 35.6994 17.7154C35.5456 17.8882 35.4686 18.1166 35.4686 18.4007V21.7317H34.002V18.3297C34.002 18.0622 33.9251 17.8491 33.7712 17.6905C33.6197 17.5319 33.4196 17.4526 33.171 17.4526C33.0029 17.4526 32.8514 17.4952 32.7165 17.5804C32.5839 17.6633 32.4786 17.7805 32.4004 17.932C32.3223 18.0811 32.2832 18.2563 32.2832 18.4575V21.7317H30.7705Z" fill="black" fill-opacity="0.8"/>
</svg>
