<svg width="56" height="38" viewBox="0 0 56 38" fill="none" xmlns="http://www.w3.org/2000/svg">
<rect y="0.890747" width="55.4348" height="36.1219" rx="3" fill="#C9C9C9"/>
<path d="M19.3811 22.4902C18.8342 22.4902 18.3477 22.4014 17.9216 22.2238C17.4978 22.0439 17.1652 21.7989 16.9237 21.4888C16.6823 21.1786 16.5615 20.8271 16.5615 20.4341C16.5615 20.131 16.6302 19.8529 16.7675 19.5996C16.9072 19.3439 17.0966 19.132 17.3357 18.9639C17.5748 18.7934 17.8423 18.6845 18.1382 18.6372V18.5875C17.75 18.5094 17.4351 18.3211 17.1936 18.0228C16.9521 17.7222 16.8314 17.373 16.8314 16.9753C16.8314 16.5988 16.9415 16.2639 17.1617 15.9703C17.3818 15.6744 17.6837 15.4424 18.0672 15.2743C18.4531 15.1038 18.8911 15.0186 19.3811 15.0186C19.8712 15.0186 20.308 15.1038 20.6915 15.2743C21.0774 15.4447 21.3804 15.6779 21.6006 15.9738C21.8208 16.2674 21.932 16.6012 21.9344 16.9753C21.932 17.3754 21.8089 17.7246 21.5651 18.0228C21.3212 18.3211 21.0087 18.5094 20.6276 18.5875V18.6372C20.9188 18.6845 21.1827 18.7934 21.4195 18.9639C21.6586 19.132 21.848 19.3439 21.9877 19.5996C22.1297 19.8529 22.2019 20.131 22.2043 20.4341C22.2019 20.8271 22.08 21.1786 21.8385 21.4888C21.597 21.7989 21.2632 22.0439 20.8371 22.2238C20.4133 22.4014 19.928 22.4902 19.3811 22.4902ZM19.3811 21.3609C19.625 21.3609 19.838 21.3171 20.0203 21.2295C20.2026 21.1396 20.3447 21.0165 20.4465 20.8602C20.5506 20.7016 20.6027 20.5193 20.6027 20.3133C20.6027 20.1026 20.5494 19.9168 20.4429 19.7558C20.3364 19.5925 20.192 19.4646 20.0097 19.3723C19.8274 19.2776 19.6179 19.2302 19.3811 19.2302C19.1467 19.2302 18.9372 19.2776 18.7526 19.3723C18.5679 19.4646 18.4223 19.5925 18.3158 19.7558C18.2116 19.9168 18.1595 20.1026 18.1595 20.3133C18.1595 20.5193 18.2104 20.7016 18.3122 20.8602C18.414 21.0165 18.5573 21.1396 18.7419 21.2295C18.9266 21.3171 19.1396 21.3609 19.3811 21.3609ZM19.3811 18.1116C19.5847 18.1116 19.7658 18.0702 19.9244 17.9873C20.0831 17.9045 20.2074 17.7897 20.2973 17.6429C20.3873 17.4961 20.4323 17.3268 20.4323 17.1351C20.4323 16.9457 20.3873 16.78 20.2973 16.6379C20.2074 16.4935 20.0842 16.381 19.928 16.3005C19.7717 16.2177 19.5895 16.1763 19.3811 16.1763C19.1752 16.1763 18.9929 16.2177 18.8342 16.3005C18.6756 16.381 18.5513 16.4935 18.4614 16.6379C18.3738 16.78 18.33 16.9457 18.33 17.1351C18.33 17.3268 18.375 17.4961 18.4649 17.6429C18.5549 17.7897 18.6792 17.9045 18.8378 17.9873C18.9964 18.0702 19.1775 18.1116 19.3811 18.1116ZM26.7834 22.4937C26.4354 22.4937 26.1253 22.4334 25.853 22.3126C25.5808 22.1895 25.3653 22.0084 25.2067 21.7693C25.0505 21.5278 24.9724 21.2272 24.9724 20.8673C24.9724 20.5643 25.028 20.3098 25.1393 20.1038C25.2505 19.8978 25.402 19.7321 25.5938 19.6067C25.7856 19.4812 26.0034 19.3865 26.2472 19.3226C26.4934 19.2586 26.7515 19.2137 27.0214 19.1876C27.3386 19.1545 27.5943 19.1237 27.7884 19.0953C27.9825 19.0645 28.1234 19.0195 28.211 18.9603C28.2986 18.9012 28.3424 18.8136 28.3424 18.6976V18.6763C28.3424 18.4514 28.2714 18.2773 28.1293 18.1542C27.9896 18.0311 27.7908 17.9696 27.5327 17.9696C27.2605 17.9696 27.0439 18.03 26.8829 18.1507C26.7219 18.2691 26.6153 18.4182 26.5633 18.5981L25.1641 18.4845C25.2351 18.1531 25.3748 17.8666 25.5832 17.6251C25.7915 17.3813 26.0602 17.1943 26.3893 17.064C26.7207 16.9315 27.1042 16.8652 27.5398 16.8652C27.8429 16.8652 28.1329 16.9007 28.4099 16.9717C28.6892 17.0427 28.9366 17.1528 29.152 17.302C29.3698 17.4511 29.5415 17.6429 29.667 17.8773C29.7924 18.1093 29.8552 18.3874 29.8552 18.7118V22.3907H28.4205V21.6344H28.3779C28.2903 21.8048 28.1731 21.9551 28.0263 22.0853C27.8796 22.2132 27.7032 22.3138 27.4972 22.3872C27.2912 22.4582 27.0533 22.4937 26.7834 22.4937ZM27.2167 21.4497C27.4392 21.4497 27.6357 21.4059 27.8062 21.3183C27.9766 21.2283 28.1104 21.1076 28.2074 20.9561C28.3045 20.8046 28.353 20.6329 28.353 20.4412V19.8623C28.3057 19.8931 28.2406 19.9215 28.1577 19.9476C28.0772 19.9712 27.9861 19.9937 27.8843 20.015C27.7825 20.034 27.6807 20.0517 27.5789 20.0683C27.4771 20.0825 27.3848 20.0955 27.3019 20.1074C27.1243 20.1334 26.9693 20.1748 26.8367 20.2317C26.7041 20.2885 26.6011 20.3654 26.5278 20.4625C26.4544 20.5572 26.4177 20.6755 26.4177 20.8176C26.4177 21.0236 26.4922 21.181 26.6414 21.2899C26.7929 21.3964 26.9847 21.4497 27.2167 21.4497ZM30.8388 22.3907V16.9362H32.2806V17.8986H32.3445C32.4581 17.579 32.6475 17.3268 32.9127 17.1422C33.1778 16.9575 33.4951 16.8652 33.8644 16.8652C34.2384 16.8652 34.5569 16.9587 34.8196 17.1457C35.0824 17.3304 35.2576 17.5813 35.3452 17.8986H35.402C35.5133 17.5861 35.7145 17.3363 36.0057 17.1493C36.2993 16.9599 36.6461 16.8652 37.0462 16.8652C37.5552 16.8652 37.9683 17.0273 38.2856 17.3517C38.6052 17.6737 38.765 18.1306 38.765 18.7224V22.3907H37.2557V19.0207C37.2557 18.7177 37.1752 18.4904 37.0142 18.3389C36.8533 18.1874 36.652 18.1116 36.4106 18.1116C36.1359 18.1116 35.9217 18.1992 35.7678 18.3744C35.6139 18.5472 35.537 18.7757 35.537 19.0598V22.3907H34.0704V18.9888C34.0704 18.7212 33.9934 18.5082 33.8395 18.3496C33.688 18.1909 33.488 18.1116 33.2394 18.1116C33.0713 18.1116 32.9198 18.1542 32.7848 18.2395C32.6523 18.3223 32.5469 18.4395 32.4688 18.591C32.3907 18.7402 32.3516 18.9154 32.3516 19.1166V22.3907H30.8388Z" fill="black" fill-opacity="0.8"/>
</svg>
