<svg width="56" height="37" viewBox="0 0 56 37" fill="none" xmlns="http://www.w3.org/2000/svg">
<rect y="0.0126953" width="55.4348" height="36.1219" rx="3" fill="#E6E6E6"/>
<path d="M19.3043 14.1405C19.6784 14.1405 20.0382 14.2033 20.3839 14.3287C20.7319 14.4542 21.042 14.6543 21.3143 14.9289C21.5889 15.2035 21.8055 15.5681 21.9641 16.0226C22.1251 16.4748 22.2068 17.03 22.2092 17.6881C22.2092 18.306 22.1393 18.8576 21.9996 19.343C21.8623 19.8259 21.6646 20.2367 21.4066 20.5752C21.1486 20.9137 20.8372 21.1718 20.4727 21.3493C20.1081 21.5245 19.7009 21.6121 19.2511 21.6121C18.7657 21.6121 18.3372 21.5186 17.9655 21.3316C17.5939 21.1422 17.2944 20.8853 17.0671 20.561C16.8422 20.2343 16.7061 19.8673 16.6587 19.4601H18.1751C18.2343 19.7253 18.3585 19.9313 18.5479 20.078C18.7373 20.2224 18.9717 20.2947 19.2511 20.2947C19.7245 20.2947 20.0844 20.0887 20.3306 19.6768C20.5768 19.2625 20.7011 18.6955 20.7035 17.9758H20.6538C20.5449 18.1888 20.3981 18.3723 20.2134 18.5262C20.0288 18.6777 19.8169 18.7949 19.5778 18.8778C19.341 18.9606 19.0889 19.002 18.8214 19.002C18.3929 19.002 18.0105 18.9014 17.6744 18.7002C17.3382 18.499 17.073 18.222 16.8789 17.8692C16.6848 17.5165 16.5877 17.114 16.5877 16.6618C16.5853 16.1742 16.6978 15.7397 16.9251 15.3586C17.1523 14.9774 17.4696 14.6791 17.8768 14.4637C18.2863 14.2459 18.7622 14.1382 19.3043 14.1405ZM19.315 15.3479C19.0759 15.3479 18.8628 15.4047 18.6758 15.5184C18.4911 15.632 18.3443 15.7847 18.2354 15.9765C18.1289 16.1682 18.0768 16.3825 18.0792 16.6192C18.0792 16.8583 18.1313 17.0738 18.2354 17.2655C18.342 17.4549 18.4864 17.6064 18.6687 17.7201C18.8533 17.8314 19.064 17.887 19.3008 17.887C19.4783 17.887 19.6429 17.8538 19.7944 17.7876C19.9459 17.7213 20.0773 17.6301 20.1886 17.5141C20.3022 17.3957 20.391 17.2596 20.4549 17.1057C20.5188 16.9519 20.5508 16.7885 20.5508 16.6157C20.5484 16.386 20.494 16.1753 20.3874 15.9836C20.2809 15.7918 20.1341 15.6379 19.9471 15.5219C19.7601 15.4059 19.5494 15.3479 19.315 15.3479ZM26.7786 21.6157C26.4305 21.6157 26.1204 21.5553 25.8482 21.4346C25.5759 21.3115 25.3605 21.1304 25.2018 20.8912C25.0456 20.6498 24.9675 20.3491 24.9675 19.9893C24.9675 19.6862 25.0231 19.4317 25.1344 19.2258C25.2456 19.0198 25.3972 18.8541 25.5889 18.7286C25.7807 18.6031 25.9985 18.5084 26.2423 18.4445C26.4885 18.3806 26.7466 18.3356 27.0165 18.3096C27.3337 18.2764 27.5894 18.2456 27.7835 18.2172C27.9777 18.1865 28.1185 18.1415 28.2061 18.0823C28.2937 18.0231 28.3375 17.9355 28.3375 17.8195V17.7982C28.3375 17.5733 28.2665 17.3993 28.1244 17.2762C27.9848 17.1531 27.7859 17.0915 27.5278 17.0915C27.2556 17.0915 27.039 17.1519 26.878 17.2726C26.717 17.391 26.6105 17.5402 26.5584 17.7201L25.1592 17.6064C25.2303 17.275 25.3699 16.9885 25.5783 16.7471C25.7866 16.5032 26.0553 16.3162 26.3844 16.186C26.7158 16.0534 27.0993 15.9871 27.5349 15.9871C27.838 15.9871 28.128 16.0226 28.405 16.0937C28.6843 16.1647 28.9317 16.2748 29.1472 16.4239C29.365 16.5731 29.5366 16.7648 29.6621 16.9992C29.7875 17.2312 29.8503 17.5094 29.8503 17.8337V21.5127H28.4156V20.7563H28.373C28.2854 20.9268 28.1682 21.0771 28.0214 21.2073C27.8747 21.3351 27.6983 21.4358 27.4923 21.5091C27.2864 21.5802 27.0484 21.6157 26.7786 21.6157ZM27.2118 20.5716C27.4343 20.5716 27.6308 20.5278 27.8013 20.4403C27.9717 20.3503 28.1055 20.2296 28.2026 20.078C28.2996 19.9265 28.3482 19.7549 28.3482 19.5631V18.9843C28.3008 19.0151 28.2357 19.0435 28.1528 19.0695C28.0723 19.0932 27.9812 19.1157 27.8794 19.137C27.7776 19.1559 27.6758 19.1737 27.574 19.1903C27.4722 19.2045 27.3799 19.2175 27.297 19.2293C27.1195 19.2554 26.9644 19.2968 26.8318 19.3536C26.6992 19.4104 26.5963 19.4874 26.5229 19.5844C26.4495 19.6791 26.4128 19.7975 26.4128 19.9395C26.4128 20.1455 26.4874 20.3029 26.6365 20.4118C26.788 20.5184 26.9798 20.5716 27.2118 20.5716ZM30.8339 21.5127V16.0581H32.2757V17.0205H32.3396C32.4533 16.7009 32.6426 16.4488 32.9078 16.2641C33.173 16.0795 33.4902 15.9871 33.8595 15.9871C34.2336 15.9871 34.552 16.0806 34.8148 16.2677C35.0775 16.4523 35.2527 16.7033 35.3403 17.0205H35.3971C35.5084 16.708 35.7096 16.4582 36.0008 16.2712C36.2944 16.0818 36.6412 15.9871 37.0413 15.9871C37.5503 15.9871 37.9634 16.1493 38.2807 16.4736C38.6003 16.7956 38.7601 17.2525 38.7601 17.8444V21.5127H37.2508V18.1427C37.2508 17.8396 37.1703 17.6124 37.0094 17.4608C36.8484 17.3093 36.6471 17.2336 36.4057 17.2336C36.131 17.2336 35.9168 17.3212 35.7629 17.4964C35.609 17.6692 35.5321 17.8976 35.5321 18.1817V21.5127H34.0655V18.1107C34.0655 17.8432 33.9885 17.6301 33.8346 17.4715C33.6831 17.3129 33.4831 17.2336 33.2345 17.2336C33.0664 17.2336 32.9149 17.2762 32.78 17.3614C32.6474 17.4443 32.542 17.5615 32.4639 17.713C32.3858 17.8621 32.3467 18.0373 32.3467 18.2385V21.5127H30.8339Z" fill="black" fill-opacity="0.8"/>
</svg>
